<svg xmlns="http://www.w3.org/2000/svg" width="1200" height="640" viewBox="0 0 1200 640">
<rect width="100%" height="100%" fill="#ffffff"/>
<text x="600" y="35" text-anchor="middle" font-family="Arial" font-size="24" font-weight="700" fill="#111827">Final adaptive repair GRPO: complete files and buildable repairs</text>
<line x1="85" y1="545.0" x2="1115" y2="545.0" stroke="#e5e7eb"/>
<text x="75" y="550.0" text-anchor="end" font-family="Arial" font-size="13" fill="#374151">0%</text>
<line x1="85" y1="426.2" x2="1115" y2="426.2" stroke="#e5e7eb"/>
<text x="75" y="431.2" text-anchor="end" font-family="Arial" font-size="13" fill="#374151">25%</text>
<line x1="85" y1="307.5" x2="1115" y2="307.5" stroke="#e5e7eb"/>
<text x="75" y="312.5" text-anchor="end" font-family="Arial" font-size="13" fill="#374151">50%</text>
<line x1="85" y1="188.8" x2="1115" y2="188.8" stroke="#e5e7eb"/>
<text x="75" y="193.8" text-anchor="end" font-family="Arial" font-size="13" fill="#374151">75%</text>
<line x1="85" y1="70.0" x2="1115" y2="70.0" stroke="#e5e7eb"/>
<text x="75" y="75.0" text-anchor="end" font-family="Arial" font-size="13" fill="#374151">100%</text>
<line x1="85" y1="70" x2="85" y2="545" stroke="#111827"/>
<line x1="85" y1="545" x2="1115" y2="545" stroke="#111827"/>
<path d="M85.0,497.5 L213.8,355.0 L342.5,402.5 L471.2,260.0 L600.0,426.2 L728.8,450.0 L857.5,402.5 L986.2,450.0 L1115.0,402.5" fill="none" stroke="#2368b5" stroke-width="4"/>
<circle cx="85.0" cy="497.5" r="5" fill="#2368b5"/>
<circle cx="213.8" cy="355.0" r="5" fill="#2368b5"/>
<circle cx="342.5" cy="402.5" r="5" fill="#2368b5"/>
<circle cx="471.2" cy="260.0" r="5" fill="#2368b5"/>
<circle cx="600.0" cy="426.2" r="5" fill="#2368b5"/>
<circle cx="728.8" cy="450.0" r="5" fill="#2368b5"/>
<circle cx="857.5" cy="402.5" r="5" fill="#2368b5"/>
<circle cx="986.2" cy="450.0" r="5" fill="#2368b5"/>
<circle cx="1115.0" cy="402.5" r="5" fill="#2368b5"/>
<path d="M85.0,93.8 L213.8,70.0 L342.5,117.5 L471.2,70.0 L600.0,93.8 L728.8,70.0 L857.5,93.8 L986.2,70.0 L1115.0,70.0" fill="none" stroke="#1c8c6e" stroke-width="4"/>
<circle cx="85.0" cy="93.8" r="5" fill="#1c8c6e"/>
<circle cx="213.8" cy="70.0" r="5" fill="#1c8c6e"/>
<circle cx="342.5" cy="117.5" r="5" fill="#1c8c6e"/>
<circle cx="471.2" cy="70.0" r="5" fill="#1c8c6e"/>
<circle cx="600.0" cy="93.8" r="5" fill="#1c8c6e"/>
<circle cx="728.8" cy="70.0" r="5" fill="#1c8c6e"/>
<circle cx="857.5" cy="93.8" r="5" fill="#1c8c6e"/>
<circle cx="986.2" cy="70.0" r="5" fill="#1c8c6e"/>
<circle cx="1115.0" cy="70.0" r="5" fill="#1c8c6e"/>
<path d="M85.0,420.9 L213.8,318.1 L342.5,362.0 L471.2,262.0 L600.0,374.1 L728.8,387.2 L857.5,353.2 L986.2,389.5 L1115.0,355.4" fill="none" stroke="#111827" stroke-width="4"/>
<circle cx="85.0" cy="420.9" r="5" fill="#111827"/>
<circle cx="213.8" cy="318.1" r="5" fill="#111827"/>
<circle cx="342.5" cy="362.0" r="5" fill="#111827"/>
<circle cx="471.2" cy="262.0" r="5" fill="#111827"/>
<circle cx="600.0" cy="374.1" r="5" fill="#111827"/>
<circle cx="728.8" cy="387.2" r="5" fill="#111827"/>
<circle cx="857.5" cy="353.2" r="5" fill="#111827"/>
<circle cx="986.2" cy="389.5" r="5" fill="#111827"/>
<circle cx="1115.0" cy="355.4" r="5" fill="#111827"/>
<text x="85.0" y="577" text-anchor="middle" font-family="Arial" font-size="13" fill="#111827">1</text>
<text x="213.8" y="577" text-anchor="middle" font-family="Arial" font-size="13" fill="#111827">2</text>
<text x="342.5" y="577" text-anchor="middle" font-family="Arial" font-size="13" fill="#111827">3</text>
<text x="471.2" y="577" text-anchor="middle" font-family="Arial" font-size="13" fill="#111827">4</text>
<text x="600.0" y="577" text-anchor="middle" font-family="Arial" font-size="13" fill="#111827">5</text>
<text x="728.8" y="577" text-anchor="middle" font-family="Arial" font-size="13" fill="#111827">6</text>
<text x="857.5" y="577" text-anchor="middle" font-family="Arial" font-size="13" fill="#111827">7</text>
<text x="986.2" y="577" text-anchor="middle" font-family="Arial" font-size="13" fill="#111827">8</text>
<text x="1115.0" y="577" text-anchor="middle" font-family="Arial" font-size="13" fill="#111827">9</text>
<text x="600.0" y="618" text-anchor="middle" font-family="Arial" font-size="15" fill="#111827">Chunk number, 20 completions per chunk</text>
<rect x="780" y="78" width="320" height="88" rx="8" fill="#f9fafb" stroke="#d1d5db"/>
<line x1="800" y1="103" x2="835" y2="103" stroke="#2368b5" stroke-width="4"/><text x="846" y="108" font-family="Arial" font-size="14" fill="#111827">Build rate</text>
<line x1="800" y1="127" x2="835" y2="127" stroke="#1c8c6e" stroke-width="4"/><text x="846" y="132" font-family="Arial" font-size="14" fill="#111827">Fixture present</text>
<line x1="800" y1="151" x2="835" y2="151" stroke="#111827" stroke-width="4"/><text x="846" y="156" font-family="Arial" font-size="14" fill="#111827">Mean reward, scaled -1 to +1</text>
</svg>