<svg xmlns="http://www.w3.org/2000/svg" width="1200" height="680" viewBox="0 0 1200 680">
<rect width="100%" height="100%" fill="#ffffff"/>
<text x="600" y="35" text-anchor="middle" font-family="Arial" font-size="24" font-weight="700" fill="#111827">CADForge training evidence: buildability became the real gate</text>
<line x1="90" y1="540.0" x2="1110" y2="540.0" stroke="#e5e7eb"/>
<text x="78" y="545.0" text-anchor="end" font-family="Arial" font-size="13" fill="#374151">0%</text>
<line x1="90" y1="422.5" x2="1110" y2="422.5" stroke="#e5e7eb"/>
<text x="78" y="427.5" text-anchor="end" font-family="Arial" font-size="13" fill="#374151">10%</text>
<line x1="90" y1="305.0" x2="1110" y2="305.0" stroke="#e5e7eb"/>
<text x="78" y="310.0" text-anchor="end" font-family="Arial" font-size="13" fill="#374151">20%</text>
<line x1="90" y1="187.5" x2="1110" y2="187.5" stroke="#e5e7eb"/>
<text x="78" y="192.5" text-anchor="end" font-family="Arial" font-size="13" fill="#374151">30%</text>
<line x1="90" y1="70.0" x2="1110" y2="70.0" stroke="#e5e7eb"/>
<text x="78" y="75.0" text-anchor="end" font-family="Arial" font-size="13" fill="#374151">40%</text>
<line x1="90" y1="70" x2="90" y2="540" stroke="#111827"/>
<line x1="90" y1="540" x2="1110" y2="540" stroke="#111827"/>
<rect x="137.0" y="540.0" width="110" height="0.0" rx="6" fill="#9aa4b2"/>
<text x="192.0" y="530.0" text-anchor="middle" font-family="Arial" font-size="15" font-weight="700" fill="#111827">0/160</text>
<text x="192.0" y="575" text-anchor="middle" font-family="Arial" font-size="14" fill="#111827"><tspan x="192.0" dy="0">2B dense</tspan><tspan x="192.0" dy="18">GRPO</tspan></text>
<rect x="341.0" y="540.0" width="110" height="0.0" rx="6" fill="#7c9ed9"/>
<text x="396.0" y="530.0" text-anchor="middle" font-family="Arial" font-size="15" font-weight="700" fill="#111827">0/160</text>
<text x="396.0" y="575" text-anchor="middle" font-family="Arial" font-size="14" fill="#111827"><tspan x="396.0" dy="0">9B dense</tspan><tspan x="396.0" dy="18">GRPO</tspan></text>
<rect x="545.0" y="187.5" width="110" height="352.5" rx="6" fill="#1c8c6e"/>
<text x="600.0" y="177.5" text-anchor="middle" font-family="Arial" font-size="15" font-weight="700" fill="#111827">96/320</text>
<text x="600.0" y="575" text-anchor="middle" font-family="Arial" font-size="14" fill="#111827"><tspan x="600.0" dy="0">9B strict</tspan><tspan x="600.0" dy="18">build gate</tspan></text>
<rect x="749.0" y="540.0" width="110" height="0.0" rx="6" fill="#cf5c5c"/>
<text x="804.0" y="530.0" text-anchor="middle" font-family="Arial" font-size="15" font-weight="700" fill="#111827">0/120</text>
<text x="804.0" y="575" text-anchor="middle" font-family="Arial" font-size="14" fill="#111827"><tspan x="804.0" dy="0">Adaptive v1</tspan><tspan x="804.0" dy="18">clipped bug</tspan></text>
<rect x="953.0" y="194.0" width="110" height="346.0" rx="6" fill="#2368b5"/>
<text x="1008.0" y="184.0" text-anchor="middle" font-family="Arial" font-size="15" font-weight="700" fill="#111827">53/180</text>
<text x="1008.0" y="575" text-anchor="middle" font-family="Arial" font-size="14" fill="#111827"><tspan x="1008.0" dy="0">Adaptive final</tspan><tspan x="1008.0" dy="18">8192</tspan></text>
<path d="M192.0,98.7 L396.0,94.0 L600.0,82.9 L804.0,478.9 L1008.0,97.8" fill="none" stroke="#111827" stroke-width="4"/>
<circle cx="192.0" cy="98.7" r="7" fill="#111827"/>
<text x="192.0" y="84.7" text-anchor="middle" font-family="Arial" font-size="13" fill="#111827">best 0.88</text>
<circle cx="396.0" cy="94.0" r="7" fill="#111827"/>
<text x="396.0" y="80.0" text-anchor="middle" font-family="Arial" font-size="13" fill="#111827">best 0.90</text>
<circle cx="600.0" cy="82.9" r="7" fill="#111827"/>
<text x="600.0" y="68.9" text-anchor="middle" font-family="Arial" font-size="13" fill="#111827">best 0.94</text>
<circle cx="804.0" cy="478.9" r="7" fill="#111827"/>
<text x="804.0" y="464.9" text-anchor="middle" font-family="Arial" font-size="13" fill="#111827">best -0.74</text>
<circle cx="1008.0" cy="97.8" r="7" fill="#111827"/>
<text x="1008.0" y="83.8" text-anchor="middle" font-family="Arial" font-size="13" fill="#111827">best 0.88</text>
<text x="32" y="305.0" transform="rotate(-90 32 305.0)" text-anchor="middle" font-family="Arial" font-size="16" fill="#111827">Buildable completions</text>
<text x="1174" y="305.0" transform="rotate(90 1174 305.0)" text-anchor="middle" font-family="Arial" font-size="16" fill="#111827">Best reward line, scaled -1 to +1</text>
</svg>